# xmcd
#
# Track frame offsets:
#	150
#	22673
#	39688
#	66687
#	92017
#	111686
#	135592
#	154435
#	182700
#	191700
#	207449
#	227699
#	251324
#	269604
#	286619
#	301806
#	324868
#
# Disc length: 4654 seconds
#
# Revision: 3
# Processed by: cddbd v1.5.2PL0 Copyright (c) Steve Scherf et al.
# Submitted via: audiograbber 1.83.01
#
DISCID=f4122c11
DTITLE=Ministry Of Sound - The Annual Spring 2009 CD3
DYEAR=2009
DGENRE=House
TTITLE0=Funkagenda - Breakwater (EDX's Ibiza Sunrise Mix)
TTITLE1=Emilio Fernandez - Reynosa 
TTITLE2=Cj Stone  - Shining Star (Martin Roth NuStyle Remix)
TTITLE3=Sono - Keep Control Plus (Fedde Le Grand Mix)
TTITLE4=Deadmau5 - Slip 
TTITLE5=Steve Angello and Sebastian Ingrosso - Partouze (Jean Elan Remix)
TTITLE6=Moguai - Beatbox (Inpetto Remix)
TTITLE7=Dj Sammy - Feel The Love
TTITLE8=Eleze - Teardrop  (Robbie Rivera Remix)
TTITLE9=Francesco Diaz and Young Rebels - It´S Our Future (Deadmau5 Remix)
TTITLE10=Greg Cerrone - Taking Control Of You (Albin Myers and Jonas Sellberg Rem
TTITLE10=ix)
TTITLE11=Jean Elan - Shake Me
TTITLE12=Sebastian Gnewkow - Monorail (Albin Myers and Jonas Sellberg Remix)
TTITLE13=Micha Moor and Tim Royko - I Like That (Patric La Funk Remix)
TTITLE14=Harry 'Choo Choo' Romero and José Nunez - Lifting Me High
TTITLE15=David Costa - Transporter (Club Mix)
TTITLE16=Adam Shaw - Engage
EXTD=
EXTT0=
EXTT1=
EXTT2=
EXTT3=
EXTT4=
EXTT5=
EXTT6=
EXTT7=
EXTT8=
EXTT9=
EXTT10=
EXTT11=
EXTT12=
EXTT13=
EXTT14=
EXTT15=
EXTT16=
PLAYORDER=
